<svg 
 xmlns="http://www.w3.org/2000/svg"
 xmlns:xlink="http://www.w3.org/1999/xlink"
 width="110px" height="18px">
<path fill-rule="evenodd"  fill="rgb(255, 255, 255)"
 d="M105.780,2.227 L105.780,17.347 L103.620,17.347 L103.620,2.227 L99.780,2.227 L99.780,0.547 L109.620,0.547 L109.620,2.227 L105.780,2.227 ZM97.464,11.119 C97.088,11.591 96.616,11.927 96.048,12.127 C95.480,12.327 94.804,12.427 94.020,12.427 C93.652,12.427 93.236,12.403 92.772,12.355 C92.308,12.307 91.924,12.251 91.620,12.187 L91.620,17.347 L89.460,17.347 L89.460,0.787 C90.068,0.611 90.680,0.487 91.296,0.415 C91.912,0.343 92.580,0.307 93.300,0.307 C94.260,0.307 95.076,0.407 95.748,0.607 C96.420,0.807 96.964,1.139 97.380,1.603 C97.796,2.067 98.100,2.683 98.292,3.451 C98.484,4.219 98.580,5.171 98.580,6.307 C98.580,7.475 98.488,8.451 98.304,9.235 C98.120,10.019 97.840,10.647 97.464,11.119 ZM96.240,4.147 C96.120,3.571 95.932,3.115 95.676,2.779 C95.420,2.443 95.096,2.207 94.704,2.071 C94.312,1.935 93.844,1.867 93.300,1.867 L91.620,1.867 L91.620,10.747 L93.300,10.747 C93.844,10.747 94.312,10.679 94.704,10.543 C95.096,10.407 95.420,10.171 95.676,9.835 C95.932,9.499 96.120,9.043 96.240,8.467 C96.360,7.891 96.420,7.171 96.420,6.307 C96.420,5.443 96.360,4.723 96.240,4.147 ZM84.060,13.027 L79.260,13.027 L78.180,17.347 L76.020,17.347 L80.100,0.547 L83.220,0.547 L87.300,17.347 L85.140,17.347 L84.060,13.027 ZM81.708,2.947 L81.612,2.947 L79.620,11.347 L83.700,11.347 L81.708,2.947 ZM71.341,4.867 L71.221,4.867 L67.741,15.187 L65.581,15.187 L62.101,4.867 L61.981,4.867 L61.261,17.347 L59.101,17.347 L60.061,0.547 L62.701,0.547 L66.613,12.067 L66.709,12.067 L70.621,0.547 L73.261,0.547 L74.221,17.347 L72.061,17.347 L71.341,4.867 ZM55.213,15.787 C54.765,16.443 54.225,16.907 53.593,17.179 C52.961,17.451 52.237,17.587 51.421,17.587 C50.605,17.587 49.881,17.451 49.249,17.179 C48.616,16.907 48.076,16.443 47.629,15.787 C47.181,15.131 46.841,14.247 46.609,13.135 C46.377,12.023 46.261,10.627 46.261,8.947 C46.261,7.267 46.377,5.871 46.609,4.759 C46.841,3.647 47.181,2.763 47.629,2.107 C48.076,1.451 48.616,0.987 49.249,0.715 C49.881,0.443 50.605,0.307 51.421,0.307 C52.237,0.307 52.961,0.443 53.593,0.715 C54.225,0.987 54.765,1.451 55.213,2.107 C55.661,2.763 56.001,3.647 56.233,4.759 C56.464,5.871 56.581,7.267 56.581,8.947 C56.581,10.627 56.464,12.023 56.233,13.135 C56.001,14.247 55.661,15.131 55.213,15.787 ZM54.169,5.395 C54.001,4.467 53.781,3.731 53.509,3.187 C53.237,2.643 52.917,2.267 52.549,2.059 C52.180,1.851 51.805,1.747 51.421,1.747 C51.037,1.747 50.661,1.851 50.293,2.059 C49.924,2.267 49.605,2.643 49.333,3.187 C49.060,3.731 48.841,4.467 48.673,5.395 C48.505,6.323 48.421,7.507 48.421,8.947 C48.421,10.387 48.505,11.571 48.673,12.499 C48.841,13.427 49.060,14.163 49.333,14.707 C49.605,15.251 49.924,15.627 50.293,15.835 C50.661,16.043 51.037,16.147 51.421,16.147 C51.805,16.147 52.180,16.043 52.549,15.835 C52.917,15.627 53.237,15.251 53.509,14.707 C53.781,14.163 54.001,13.427 54.169,12.499 C54.337,11.571 54.421,10.387 54.421,8.947 C54.421,7.507 54.337,6.323 54.169,5.395 ZM41.221,9.667 L36.181,9.667 L36.181,17.347 L34.021,17.347 L34.021,0.547 L36.181,0.547 L36.181,7.987 L41.221,7.987 L41.221,0.547 L43.381,0.547 L43.381,17.347 L41.221,17.347 L41.221,9.667 ZM29.821,17.347 L26.821,10.147 L23.821,17.347 L21.661,17.347 L25.261,8.707 L22.021,0.547 L24.181,0.547 L26.821,7.267 L29.461,0.547 L31.621,0.547 L28.381,8.707 L31.981,17.347 L29.821,17.347 ZM12.181,0.547 L20.341,0.547 L20.341,2.227 L14.341,2.227 L14.341,7.747 L19.621,7.747 L19.621,9.427 L14.341,9.427 L14.341,15.667 L20.341,15.667 L20.341,17.347 L12.181,17.347 L12.181,0.547 ZM6.421,17.347 L4.261,17.347 L4.261,2.227 L0.421,2.227 L0.421,0.547 L10.261,0.547 L10.261,2.227 L6.421,2.227 L6.421,17.347 Z"/>
</svg>